<svg xmlns="http://www.w3.org/2000/svg" id="svg8" version="1.1" viewBox="0 0 105.83 79.37" height="300" width="400"><defs id="defs2"><clipPath id="clip-path" transform="translate(-13.26 -2.03)"><path class="cls-1" id="rect835" d="M.5 0h375v204H.5z"/></clipPath><clipPath id="clip-path-2" transform="translate(-13.26 -2.03)"><path class="cls-1" d="M208.84 84a14.46 14.46 0 10.14 0z" id="path838"/></clipPath><clipPath id="clip-path-3" transform="translate(-13.26 -2.03)"><path class="cls-1" transform="rotate(-.84 209.36 99.76)" id="rect841" d="M207.18 98.38h4.56v3.53h-4.56z"/></clipPath><clipPath id="clip-path-4" transform="translate(-13.26 -2.03)"><path class="cls-1" transform="rotate(-.84 210.07 95.67)" id="rect844" d="M209.29 94.07h2.65v3.02h-2.65z"/></clipPath><clipPath id="clip-path-5" transform="translate(-13.26 -2.03)"><path class="cls-1" d="M279.89 54.46a13.16 13.16 0 11-12.67-13.63 13.17 13.17 0 0112.67 13.63" id="path847"/></clipPath><clipPath id="clip-path-6" transform="translate(-13.26 -2.03)"><path class="cls-1" transform="rotate(-88.3 265.88 57.15)" id="rect850" d="M264.69 54.29h3.08v5.49h-3.08z"/></clipPath><clipPath id="clip-path-7" transform="translate(-13.26 -2.03)"><path class="cls-1" transform="rotate(-88.18 266.23 54.99)" id="rect853" d="M264.24 52.4h3.99v5.17h-3.99z"/></clipPath><clipPath id="clip-path-8" transform="translate(-13.26 -2.03)"><path class="cls-1" transform="rotate(-88.18 267.99 49.9)" id="rect856" d="M266.29 48.38h3.42v3h-3.42z"/></clipPath><clipPath id="clip-path-9" transform="translate(-13.26 -2.03)"><path class="cls-1" transform="rotate(-88.18 267.07 47)" id="rect859" d="M265.95 43.23h2.26v7.51h-2.26z"/></clipPath><pattern id="Drop_3" data-name="Drop 3" width="50" height="50" patternTransform="translate(59.34 -78.74)" patternUnits="userSpaceOnUse"><path class="cls-1" id="rect862" d="M0 0h50v50H0z"/><path class="cls-2" id="rect864" d="M0 0h50v50H0z"/><path class="cls-3" d="M6 5.93a1.28 1.28 0 01-1.26 1.3A1.28 1.28 0 013.45 6V4.3A1.27 1.27 0 014.67 3 1.28 1.28 0 016 4.22z" id="path866"/><path class="cls-3" d="M18.87 13.09a1.19 1.19 0 01-1.26 1.06 1.18 1.18 0 01-1.3-1v-1.38a1.17 1.17 0 011.25-1 1.18 1.18 0 011.3 1z" id="path868"/><path class="cls-3" d="M23.58 3a1.17 1.17 0 01-1.26 1.06A1.18 1.18 0 0121 3V1.63A1.18 1.18 0 0122.25.61a1.18 1.18 0 011.3 1z" id="path870"/><path class="cls-3" d="M10.18 11.29a1.19 1.19 0 01-1.26 1.05 1.18 1.18 0 01-1.3-1V9.97A1.19 1.19 0 018.85 8.9a1.18 1.18 0 011.3 1z" id="path872"/><path class="cls-3" d="M13.78 6.11a1.49 1.49 0 01-1.26 1.64 1.48 1.48 0 01-1.3-1.6V3.99a1.47 1.47 0 011.24-1.64A1.49 1.49 0 0113.74 4z" id="path874"/><path class="cls-3" d="M4.27 15.41A1.28 1.28 0 013 16.71a1.28 1.28 0 01-1.3-1.25v-1.71a1.28 1.28 0 011.26-1.3 1.27 1.27 0 011.3 1.25z" id="path876"/><path class="cls-3" d="M19.44 23.47a1.17 1.17 0 01-1.26 1.05 1.17 1.17 0 01-1.29-1v-1.37a1.17 1.17 0 011.26-1.05 1.16 1.16 0 011.3 1z" id="path878"/><path class="cls-3" d="M25.74 21.24a1.17 1.17 0 01-1.26 1.05 1.18 1.18 0 01-1.3-1v-1.37a1.18 1.18 0 011.27-1.05 1.16 1.16 0 011.29 1z" id="path880"/><path class="cls-3" d="M10.39 23.21a1.17 1.17 0 01-1.25 1.05 1.2 1.2 0 01-1.31-1v-1.37a1.17 1.17 0 011.26-1.05 1.16 1.16 0 011.3 1z" id="path882"/><path class="cls-3" d="M14 19a1.47 1.47 0 01-1.25 1.64 1.49 1.49 0 01-1.31-1.59v-2.17a1.49 1.49 0 011.25-1.64A1.48 1.48 0 0114 16.87z" id="path884"/><path class="cls-3" d="M26.73 12.5a1.47 1.47 0 01-1.25 1.64 1.47 1.47 0 01-1.31-1.59v-2.16a1.48 1.48 0 011.25-1.64 1.47 1.47 0 011.31 1.59z" id="path886"/><path class="cls-3" d="M32 5.89a1.27 1.27 0 01-1.25 1.3 1.28 1.28 0 01-1.31-1.26v-1.7a1.28 1.28 0 011.26-1.3A1.27 1.27 0 0132 4.18z" id="path888"/><path class="cls-3" d="M47.07 12.57a1.17 1.17 0 01-1.26 1.06 1.18 1.18 0 01-1.3-1v-1.37a1.17 1.17 0 011.26-1.06 1.18 1.18 0 011.3 1z" id="path890"/><path class="cls-3" d="M48.06 5.54a1.18 1.18 0 01-1.26 1 1.18 1.18 0 01-1.3-1v-.82c0-.57.56-1.59 1.27-1.61a1.17 1.17 0 011.29 1z" id="path892"/><path class="cls-3" d="M38.06 11.09a1.17 1.17 0 01-1.26 1.05 1.18 1.18 0 01-1.3-1V9.77a1.17 1.17 0 011.26-1 1.16 1.16 0 011.29 1z" id="path894"/><path class="cls-3" d="M41.66 4.91a1.49 1.49 0 01-1.25 1.64A1.48 1.48 0 0139.1 5V2.83a1.47 1.47 0 011.25-1.64 1.49 1.49 0 011.31 1.6z" id="path896"/><path class="cls-3" d="M32.22 19A1.27 1.27 0 0131 20.29 1.26 1.26 0 0129.67 19v-1.71A1.27 1.27 0 0130.89 16a1.28 1.28 0 011.3 1.26z" id="path898"/><path class="cls-3" d="M47.65 23a1.17 1.17 0 01-1.26 1 1.17 1.17 0 01-1.3-1v-1.38a1.17 1.17 0 011.26-1.05 1.18 1.18 0 011.3 1z" id="path900"/><path class="cls-3" d="M38.28 23a2 2 0 01-1.26.51 1.18 1.18 0 01-1.3-1v-1.38A1.16 1.16 0 0137 20.08c.71 0 1.29.44 1.3 1.55z" id="path902"/><path class="cls-3" d="M41.88 18.83a1.49 1.49 0 01-1.25 1.64 1.47 1.47 0 01-1.31-1.59v-2.16a1.48 1.48 0 011.25-1.65 1.5 1.5 0 011.31 1.6z" id="path904"/><path class="cls-3" d="M4.48 26.76a1.29 1.29 0 01-1.26 1.3 1.28 1.28 0 01-1.3-1.26v-1.7a1.29 1.29 0 011.25-1.31 1.28 1.28 0 011.31 1.26z" id="path906"/><path class="cls-3" d="M13.69 30.19a1.17 1.17 0 01-1.26 1 1.17 1.17 0 01-1.29-1v-1.38a1.17 1.17 0 011.26-1.05 1.17 1.17 0 011.3 1z" id="path908"/><path class="cls-3" d="M24 29.78a1.17 1.17 0 01-1.26 1 1.17 1.17 0 01-1.29-1v-1.37a1.17 1.17 0 011.26-1.05 1.16 1.16 0 011.3 1z" id="path910"/><path class="cls-3" d="M18.75 35.47a1.47 1.47 0 01-1.25 1.64 1.48 1.48 0 01-1.31-1.6v-2.16a1.47 1.47 0 011.25-1.64 1.48 1.48 0 011.31 1.6z" id="path912"/><path class="cls-3" d="M4.7 38.68A1.28 1.28 0 013.44 40a1.28 1.28 0 01-1.3-1.26v-1.7a1.27 1.27 0 011.25-1.3A1.28 1.28 0 014.67 37z" id="path914"/><path class="cls-3" d="M19.87 45.74a1.17 1.17 0 01-1.26 1 1.18 1.18 0 01-1.3-1v-1.37a1.18 1.18 0 011.26-1.06 1.17 1.17 0 011.29 1z" id="path916"/><path class="cls-3" d="M26.52 37.22a1.19 1.19 0 01-1.26 1.06 1.18 1.18 0 01-1.3-1v-1.37a1.18 1.18 0 011.27-1.06 1.17 1.17 0 011.29 1z" id="path918"/><path class="cls-3" d="M13.53 47a1.18 1.18 0 01-1.26 1A1.18 1.18 0 0111 47v-1.37a1.18 1.18 0 011.26-1.06 1.18 1.18 0 011.3 1z" id="path920"/><path class="cls-3" d="M10.77 39.7a1.38 1.38 0 01-1.25 1.1 1.48 1.48 0 01-1.31-1.6v-2.16a1.47 1.47 0 011.21-1.64c.71 0 1.29.7 1.31 2.14z" id="path922"/><path class="cls-3" d="M27.22 47.16A1.47 1.47 0 0126 48.8a1.48 1.48 0 01-1.31-1.59v-2.17a1.47 1.47 0 011.25-1.64 1.48 1.48 0 011.24 1.6z" id="path924"/><path class="cls-3" d="M32.45 31.1a1.28 1.28 0 01-1.26 1.3 1.28 1.28 0 01-1.3-1.26v-1.7a1.26 1.26 0 011.25-1.3 1.26 1.26 0 011.3 1.25z" id="path926"/><path class="cls-3" d="M49.21 33.75a1.17 1.17 0 01-1.26 1 1.18 1.18 0 01-1.3-1v-1.38a1.18 1.18 0 011.27-1.05 1.16 1.16 0 011.29 1z" id="path928"/><path class="cls-3" d="M41.22 41.92A1.19 1.19 0 0140 43a1.18 1.18 0 01-1.3-1v-1.37a1.19 1.19 0 011.27-1.06 1.17 1.17 0 011.29 1z" id="path930"/><path class="cls-3" d="M38.49 34.36a1.18 1.18 0 01-1.26 1 1.18 1.18 0 01-1.3-1v-1.37a1.19 1.19 0 011.23-.99 1.18 1.18 0 011.3 1z" id="path932"/><path class="cls-3" d="M42.08 30.18a1.47 1.47 0 01-1.24 1.64 1.48 1.48 0 01-1.31-1.6v-2.16a1.47 1.47 0 011.25-1.64A1.48 1.48 0 0142 28z" id="path934"/><path class="cls-3" d="M32.67 43.2a1.28 1.28 0 01-1.26 1.3 1.27 1.27 0 01-1.3-1.25v-1.71a1.27 1.27 0 011.25-1.3 1.29 1.29 0 011.31 1.25z" id="path936"/><path class="cls-3" d="M4.73 46.81a1.18 1.18 0 01-1.26 1 1.18 1.18 0 01-1.3-1v-1.37a1.19 1.19 0 011.27-1.06 1.17 1.17 0 011.29 1z" id="path938"/><path class="cls-3" d="M38.7 48.28a1.17 1.17 0 01-1.26 1 1.17 1.17 0 01-1.29-1V46.9a1.17 1.17 0 011.26-1.05 1.18 1.18 0 011.3 1z" id="path940"/><path class="cls-3" d="M46.44 43a1.49 1.49 0 01-1.25 1.64A1.47 1.47 0 0143.88 43v-2.16a1.48 1.48 0 011.25-1.65 1.49 1.49 0 011.31 1.6z" id="path942"/></pattern><style id="style833">.cls-1,.cls-6,.cls-9{fill:none}.cls-2{fill:#004753}.cls-3{fill:#2ed1ff}.cls-6,.cls-9{stroke:#fff;stroke-linecap:round;stroke-miterlimit:10;stroke-width:2px}.cls-7{fill:#054752}.cls-9{stroke-dasharray:8}.cls-11{fill:#fff}.cls-12{fill:#facfc4}.cls-13{fill:#736449}.cls-14{opacity:.28}.cls-16{fill:#8f405f}.cls-19{fill:#fce0cd}.cls-23{fill:#998675}.cls-29{mix-blend-mode:multiply}.cls-28{fill:#cea299}</style></defs><g transform="translate(-27.72 -88.19)" id="layer1"><g transform="matrix(.26458 0 0 .26458 34.77 101.04)" style="isolation:isolate" clip-path="url(#clip-path)" id="g1167"><path class="cls-3" id="polygon947" d="M182.12.97l71.5 19.3 83.63-7.84 12.97 132.52-96.95 13.98-76.43-23.52-59.54 20.64 7.68-135.87z"/><path class="cls-6" id="polygon949" d="M181.74 1.04l71.5 19.3 83.63-7.84 12.97 132.52L252.89 159l-76.43-23.52-59.54 20.64 7.68-135.87z"/><path class="cls-6" id="line951" d="M181.74 1.04l-5.2 134.99"/><path class="cls-6" id="line953" d="M252.89 159.01l.35-138.67"/><path class="cls-7" d="M330.18 33.27c-1 2.65-8.35 7.84-8.35 7.84s-2.25-8.73-1.27-11.39a5.13 5.13 0 119.62 3.55z" transform="translate(-13.26 -2.03)" id="path955"/><path class="cls-3" d="M327.26 32.14a2 2 0 11-1.18-2.56 2 2 0 011.18 2.56z" transform="translate(-13.26 -2.03)" id="path957"/><path d="M142.38 91.53s68.36 13.44 84.87-4.39c16.51-17.83 16-36.81 31.78-41.44 15.78-4.63 45.94-3.65 45.94-3.65" id="path959" stroke="#054752" stroke-miterlimit="10" stroke-width="2" stroke-linecap="round" fill="none"/><path class="cls-9" d="M160.5 87s65.6-7.09 71.55-28.27c12.09-43 80.13-19.2 80.13-19.2" transform="translate(-13.26 -2.03)" id="path961"/><path class="cls-9" d="M154.5 101s26 47 80.53 24.28c57-23.75 25-55.43 82.61-76.53" transform="translate(-13.26 -2.03)" id="path963"/><g clip-path="url(#clip-path-2)" id="g1021"><path class="cls-11" d="M227 101a17.89 17.89 0 11-18.07-17.71A17.9 17.9 0 01227 101" transform="translate(-13.26 -2.03)" id="path965"/><path class="cls-7" d="M214.61 108.1l2.63 15s4.4-.09 4.65-.07a35.45 35.45 0 00.26-3.94c.1-3.61-.05-8.88-1.38-12.33-.12-.33-5.15 1.15-6.16 1.34" transform="translate(-13.26 -2.03)" id="path967"/><path class="cls-7" d="M217.4 104.48a3.14 3.14 0 11-2.81 3.44 3.14 3.14 0 012.81-3.44" transform="translate(-13.26 -2.03)" id="path969"/><path class="cls-7" d="M204.34 108.4l-2.19 15.1s-4.4 0-4.65.06a35.25 35.25 0 01-.38-3.93c-.2-3.6-.21-8.88 1-12.37.1-.33 5.17 1 6.19 1.16" transform="translate(-13.26 -2.03)" id="path971"/><path class="cls-7" d="M201.44 104.87a3.14 3.14 0 102.92 3.35 3.14 3.14 0 00-2.92-3.35" transform="translate(-13.26 -2.03)" id="path973"/><path class="cls-7" d="M207.34 102s-5.56 2.13-7 3c-.25.16.89 6.51.89 6.51 1.18 4.2 2 15.54 2.3 17.15l6.84-.1L210 102h-2.67" transform="translate(-13.26 -2.03)" id="path975"/><path class="cls-7" d="M211.06 101.7a80.62 80.62 0 017.73 2.85c.26.15-.45 7.75-.45 7.75-1.05 4.23-1.74 14.37-2 16l-6.91.1-.43-26.55c.54 0 2-.15 2-.15" transform="translate(-13.26 -2.03)" id="path977"/><path class="cls-12" d="M202.21 123.66a9.85 9.85 0 01-.25 2.57 46.9 46.9 0 00-1.14 10.27 9.12 9.12 0 00.14 1 5.87 5.87 0 01.25.86 8.67 8.67 0 00.25 1.13c-.32.07-.6-.1-.72-.58s-.14-.71-.31-.7c-.17.01-.09.31-.05 1 .04.69.1 1.33.1 2 0 .44-.41.42-.49.13-.13-.51-.18-1.73-.26-2a.06.06 0 00-.12 0c-.05.58.44 2.08 0 2.14a.45.45 0 01-.17-.08 1.06 1.06 0 01-.14-.41v-.16c-.08-.56-.15-1.12-.22-1.41 0-.08-.09-.12-.12-.06a3.25 3.25 0 00.05.79c.07.56.13 1.24-.06 1.27-.19.03-.27-.27-.34-.66-.11-.68-.15-1.59-.18-1.63-.03-.04-.11 0-.1 0v1.28c0 .21-.21.29-.29.17a18.38 18.38 0 01-.25-1.86c-.14-1.12.1-2.24 0-3.29 0-.26-.07-.43-.13-.86a41.78 41.78 0 01-.27-9.22 14.52 14.52 0 01.27-2.16" transform="translate(-13.26 -2.03)" id="path979"/><path class="cls-12" d="M200 121.18a2.33 2.33 0 102.24 2.41 2.32 2.32 0 00-2.24-2.41" transform="translate(-13.26 -2.03)" id="path981"/><path class="cls-12" d="M217.29 123.21a9.58 9.58 0 00.34 2.56 47.54 47.54 0 011.44 10.23 9.26 9.26 0 01-.12 1 6.65 6.65 0 00-.22.88 7.8 7.8 0 01-.22 1.13c.32.06.6-.12.71-.6.11-.48.11-.72.28-.71.17.01.1.31.08 1-.02.69-.06 1.34 0 2 0 .44.42.41.49.11.11-.51.12-1.73.2-2a.06.06 0 01.12 0c.06.59-.38 2.09.1 2.14a.24.24 0 00.16-.09.73.73 0 00.14-.4.78.78 0 010-.16c.07-.57.11-1.13.18-1.42 0-.08.09-.12.12-.06a3.19 3.19 0 010 .78c-.05.57-.1 1.25.1 1.27.2.02.26-.27.32-.67.09-.68.1-1.59.14-1.63.04-.04.1 0 .1 0v1.27c0 .22.22.29.29.17a17.05 17.05 0 00.2-1.87c.11-1.13-.17-2.23-.08-3.29 0-.26.05-.42.1-.86a42 42 0 000-9.23 14.1 14.1 0 00-.33-2.15" transform="translate(-13.26 -2.03)" id="path983"/><path class="cls-12" d="M219.44 120.66a2.33 2.33 0 11-2.16 2.48 2.33 2.33 0 012.16-2.48" transform="translate(-13.26 -2.03)" id="path985"/><path class="cls-13" d="M214.39 94.31c-.36 4-1.52 5.67-6.66 7-3 .75-3.81-3.58-3.87-6.63-.06-3.05 4.31-5.41 7.36-5.2 2.21.15 3.53.74 3.17 4.86" transform="translate(-13.26 -2.03)" id="path987"/><path class="cls-13" d="M208.36 98.61a3.35 3.35 0 11-3.4-3.3 3.34 3.34 0 013.4 3.3" transform="translate(-13.26 -2.03)" id="path989"/><path class="cls-13" d="M211.69 93.92a4.26 4.26 0 11-4.32-4.19 4.24 4.24 0 014.32 4.19" transform="translate(-13.26 -2.03)" id="path991"/><path class="cls-12" d="M211.69 98.24l-4.92-.33.06 4.57c0 .27.86 2.2 2.39 2.25h.36a2.46 2.46 0 002.2-2.29z" transform="translate(-13.26 -2.03)" id="path993"/><g class="cls-14" id="g999"><g clip-path="url(#clip-path-3)" id="g997"><path class="cls-16" d="M207.16 98.6c.1 0 .84 3.68 4.61 3.25l-.05-3.5z" transform="translate(-13.26 -2.03)" id="path995"/></g></g><path class="cls-12" d="M212.49 93.65l-.08 1.47c-.06 1.42-.29 4.65-2.33 4.95a4.7 4.7 0 01-.81 0l-.05-7.62h1.86a1.39 1.39 0 011.26.71 1.09 1.09 0 01.14.43z" transform="translate(-13.26 -2.03)" id="path1001"/><path class="cls-12" d="M206.05 93.7l.11 1.46c.07 1.42.6 4.64 2.65 4.91a1.9 1.9 0 00.56 0l-.06-7.62H207.45a1.35 1.35 0 00-1.25.73 1.23 1.23 0 00-.14.42z" transform="translate(-13.26 -2.03)" id="path1003"/><path class="cls-11" d="M211 97.22c-.38 0-2.51.42-2.51.42.12.44.83.72 1.43.64.6-.08 1.13-.64 1.08-1.06" transform="translate(-13.26 -2.03)" id="path1005"/><g class="cls-14" id="g1011"><g clip-path="url(#clip-path-4)" id="g1009"><path class="cls-16" d="M210.17 94.12s.1 2.29.08 2.32c-.11.19-.94.23-.94.23s1.09.81 2 .18c.91-.63 1.23-3.15-1.1-2.73" transform="translate(-13.26 -2.03)" id="path1007"/></g></g><path class="cls-2" d="M207.52 94.87a.49.49 0 00.27.17.91.91 0 00.85-.17.6.6 0 00-.43-.2c-.3 0-.59 0-.69.2" transform="translate(-13.26 -2.03)" id="path1013"/><path class="cls-2" d="M210.71 94.91a.74.74 0 00.3.18.89.89 0 00.83-.18.9.9 0 00-1.13 0" transform="translate(-13.26 -2.03)" id="path1015"/><path class="cls-13" d="M215 87.7c.76 2.68-.73 3.64-1.74 4l-2.7 1.09a3.74 3.74 0 01-4.57-1.77l-.56.36c-.63-1.59 1.24-3.74 2.83-4.38l2.66-1a3.09 3.09 0 014 1.74" transform="translate(-13.26 -2.03)" id="path1017"/><path class="cls-13" d="M206.17 93.32s3.74.57 6.39-1.37c2-1.5-2.26-2.32-2.26-2.32l-4 1.55z" transform="translate(-13.26 -2.03)" id="path1019"/></g><g clip-path="url(#clip-path-5)" id="g1097"><path class="cls-11" d="M279.89 54.46a13.16 13.16 0 11-12.67-13.63 13.17 13.17 0 0112.67 13.63" transform="translate(-13.26 -2.03)" id="path1023"/><path class="cls-7" d="M271.63 63.88l1.87 14.67s4.26.11 4.5.13a33.21 33.21 0 00.43-3.8c.26-3.5.35-8.61-.78-12-.1-.32-5 .89-6 1" transform="translate(-13.26 -2.03)" id="path1025"/><path class="cls-7" d="M274.49 60.5a3 3 0 11-2.88 3.21 3.06 3.06 0 012.88-3.21" transform="translate(-13.26 -2.03)" id="path1027"/><path class="cls-7" d="M267.91 57.8s5.5.82 8.12 3.13c.07 0-1.72 8.74-1.72 8.74-1.21 4-2.1 12.64-2.23 14.08l-7.8-.22.62-25.9c.71 0 3 .17 3 .17" transform="translate(-13.26 -2.03)" id="path1029"/><path class="cls-7" d="M257.56 63.68l-2.8 14.51s-4.26-.19-4.51-.19a38.11 38.11 0 01-.18-3.82c0-3.5.19-8.61 1.54-11.92.12-.32 5 1.2 5.95 1.4" transform="translate(-13.26 -2.03)" id="path1031"/><path class="cls-7" d="M254.91 60.12a3 3 0 102.67 3.38 3 3 0 00-2.67-3.38" transform="translate(-13.26 -2.03)" id="path1033"/><path class="cls-7" d="M262.23 57.62s-5.52.47-8.29 2.61c-.07.05 1.21 7.35 1.21 7.35 1 4.12 1.19 14.26 1.43 15.82l7.61.13.81-25.63c-.52 0-2.78-.28-2.78-.28" transform="translate(-13.26 -2.03)" id="path1035"/><path class="cls-19" d="M269 57.68a3.11 3.11 0 01-.25.85 2.29 2.29 0 01-.16.31 2.5 2.5 0 01-2.2 1.34.92.92 0 01-.24 0c-2.71 0-3.46-1.38-3.62-2.5-.36-2.74.55-8.72.55-8.72l6.07 4-.15 2.63z" transform="translate(-13.26 -2.03)" id="path1037"/><g class="cls-14" id="g1043"><g clip-path="url(#clip-path-6)" id="g1041"><path class="cls-16" d="M269 57.68a3.11 3.11 0 01-.25.85l-1.26.06a4.56 4.56 0 01-3.95-2l5.51-1z" transform="translate(-13.26 -2.03)" id="path1039"/></g></g><g class="cls-14" id="g1049"><g clip-path="url(#clip-path-7)" id="g1047"><path class="cls-16" d="M263.72 53.11c.11 0 .85 4.21 5 3.92l.13-4z" transform="translate(-13.26 -2.03)" id="path1045"/></g></g><path class="cls-19" d="M270.43 47.8l-.18 1.66c-.17 2.88-.57 5.24-2.89 5.48a4.57 4.57 0 01-.92 0l.34-8.62h2.11a1.54 1.54 0 011.38.87 1.41 1.41 0 01.15.48z" transform="translate(-13.26 -2.03)" id="path1051"/><path class="cls-19" d="M262.93 47.51l.05 1.67c0 1.61.43 5.28 2.73 5.69a3.49 3.49 0 00.8.06l.43-8.62h-2.36a1.55 1.55 0 00-1.46.76 1.28 1.28 0 00-.18.47z" transform="translate(-13.26 -2.03)" id="path1053"/><g class="cls-14" id="g1059"><g clip-path="url(#clip-path-8)" id="g1057"><path class="cls-16" d="M267.57 48.21v2.54a7.15 7.15 0 01-1.11.3s1.19 1 2.2.31c1.01-.69 1.57-3.51-1.09-3.15" transform="translate(-13.26 -2.03)" id="path1055"/></g></g><path class="cls-2" d="M264.53 48.91a.52.52 0 00.3.22 1.05 1.05 0 001-.16.7.7 0 00-.48-.24c-.34-.06-.67 0-.79.18" transform="translate(-13.26 -2.03)" id="path1061"/><path class="cls-2" d="M268.14 49.13a.79.79 0 00.32.22 1 1 0 001-.16 1 1 0 00-1.27-.06" transform="translate(-13.26 -2.03)" id="path1063"/><path class="cls-23" d="M270.12 47v4.29a5.75 5.75 0 00.83-2.55c.26-2.38.11-1.92.11-1.92z" transform="translate(-13.26 -2.03)" id="path1065"/><path class="cls-11" d="M266.64 52.17c0 .25-.06.74-.07.77-.32 0-1.24-.13-1.42-.79h1.49" transform="translate(-13.26 -2.03)" id="path1067"/><path class="cls-11" d="M266.5 52.16v.78c.33 0 1.25 0 1.48-.7l-1.5-.08" transform="translate(-13.26 -2.03)" id="path1069"/><path class="cls-23" d="M266.41 58a4.35 4.35 0 01-2.45-.76c-1.32-.86-2-5.07-2-6.31a16.6 16.6 0 01.15-3 11.42 11.42 0 011.19.06s-.18 4.15 2.31 5.43a2 2 0 001.18.22c.05 0-.32 4.33-.37 4.32" transform="translate(-13.26 -2.03)" id="path1071"/><path class="cls-23" d="M266.65 51a4.56 4.56 0 00-3.58 2.08s.56.91 1.2.13a2.92 2.92 0 012.35-1.21z" transform="translate(-13.26 -2.03)" id="path1073"/><path class="cls-23" d="M266.66 51a4.57 4.57 0 013.45 2.3s-.62.88-1.21.06a2.9 2.9 0 00-2.27-1.36z" transform="translate(-13.26 -2.03)" id="path1075"/><path class="cls-23" d="M266.26 58a4.43 4.43 0 002.49-.6c1.37-.78 1.93-4.75 2-6a29.1 29.1 0 00.21-3.27 5.65 5.65 0 00-.85.1s-.22 4.16-2.79 5.27a2 2 0 01-1.2.15s.05 4.35.11 4.34" transform="translate(-13.26 -2.03)" id="path1077"/><g class="cls-14" id="g1083"><g clip-path="url(#clip-path-9)" id="g1081"><path class="cls-16" d="M263.34 46.43s5.62 2 6.89 1.76c1.27-.24.13-2.23.13-2.23z" transform="translate(-13.26 -2.03)" id="path1079"/></g></g><path class="cls-23" d="M263.24 51l.19-4.57 7.67.63s.81-4.82-3.79-4.15c-2.78.41-4.52.28-5.05 3.63-.87 5.59 1 4.46 1 4.46" transform="translate(-13.26 -2.03)" id="path1085"/><path class="cls-11" id="polygon1087" d="M247.8 56.03l1.03-1.18 3.18 3.8-1-.1-1.02.74z"/><path class="cls-11" id="polygon1089" d="M257.24 56.41l-1.59-1.19-1.88 3.49.81-.16.85 1.13z"/><path class="cls-2" d="M265 50.56a1.6 1.6 0 01-1-.38 1.66 1.66 0 01-.6-1.39 1.61 1.61 0 01.49-1.21 1.76 1.76 0 011.2-.42 1.59 1.59 0 011.44 1.56 1.64 1.64 0 01-1.22 1.81zm.09-3.1a1.49 1.49 0 00-1 .34 1.54 1.54 0 00.1 2.15 1.32 1.32 0 001.05.29 1.35 1.35 0 001-1.5 1.29 1.29 0 00-1.16-1.28z" transform="translate(-13.26 -2.03)" id="path1091"/><path class="cls-2" d="M268.88 50.68a1.65 1.65 0 01-1-.37 1.68 1.68 0 01-.6-1.4 1.61 1.61 0 01.49-1.21 1.81 1.81 0 011.2-.42 1.6 1.6 0 011.44 1.56 1.63 1.63 0 01-1.22 1.81.93.93 0 01-.31.03zm.09-3.1a1.49 1.49 0 00-1 .34 1.33 1.33 0 00-.39 1 1.37 1.37 0 00.49 1.15 1.28 1.28 0 001.05.29 1.35 1.35 0 001-1.49 1.32 1.32 0 00-1.12-1.29z" transform="translate(-13.26 -2.03)" id="path1093"/><path class="cls-2" transform="rotate(-88.18 259.32 54.64)" id="rect1095" d="M266.86 48.32h.3v.97h-.3z"/></g><circle cx="139.24" cy="89.97" r="4" id="circle1099" stroke="#054752" stroke-miterlimit="10" stroke-width="2" fill="#2ed1ff"/><path class="cls-12" d="M137.12 92.14c-17.3-8.31-45.92-17.66-45.92-17.66l-22.59-.1S35.16 85.83 24.36 94.14c-.66.5 9.27 35 9.27 35l98.77.73s4.99-37.6 4.72-37.73z" transform="translate(-13.26 -2.03)" id="path1101"/><path class="cls-12" id="polygon1103" d="M33.39 179.62l70.96-1.45 14.78-50.32-98.29-.85z"/><path class="cls-12" d="M137.12 92.14s8.88 5.25 9.23 17.86c.31 10.51 2.33 64 2.28 66.46-.36 16.65-18.22 13.56-20.35 1.35-1.3-7.45-11-37.62-13.78-47.11-4.14-14.35-4.44-44.62 22.62-38.56z" transform="translate(-13.26 -2.03)" id="path1105"/><path class="cls-12" d="M25.74 92.91S15.8 100 15.45 110.53c-.45 12.41-2.39 64.95-1.45 67.18 6.69 15.61 18.44 5.52 20.36-1.81 1.92-7.33 10.53-24.34 11.52-43.09.81-14.9 6.92-45.96-20.14-39.9z" transform="translate(-13.26 -2.03)" id="path1107"/><path class="cls-12" d="M79.27 184.92a2.17 2.17 0 003.12 2.67 4.42 4.42 0 001.61-2.44" transform="translate(-13.26 -2.03)" id="path1109"/><path class="cls-12" d="M130.34 172.12s-5.39 6 1.93 14c4.54 4.93 8.86 2.83 8.86 2.83 21.25-9 42.19-32.52 51.8-42.56a38 38 0 013.68-3.72l-7.35-9.4c-39.37 19.54-58.92 38.85-58.92 38.85z" transform="translate(-13.26 -2.03)" id="path1111"/><path class="cls-12" d="M201.18 121c-1.21.78-3 2.46-4 3.18-3.63 2.73-8.11 10.35-9.08 10.66 0 0-6.71 6-4 10.15 3.24 4.84 8.92.66 8.92.66a31.77 31.77 0 013.51-2.57c3.1-1.73 9.88-4.42 14.52-7.63 2.49-1.75 5.72-3.67 7.28-5.16.77-.76.4-1.63-.56-1.16-1.87 1-5.08 2.46-6.11 3-.29.2-.41-.13-.37-.37.04-.24 3.81-2.25 6.31-4.56 1.37-1.27 3.2-2.48 2.71-3.37-.25-.46-2.31.83-4.66 2.41a29 29 0 01-4.55 2.63c-.36 0-.36-.45 0-.67 1.11-1 4.94-4 7.14-5.77 1.6-1.29 1-2.44-.34-1.63-2.33 1.22-5.85 3.78-8.56 4.92-.28.09-.61-.19-.3-.5.79-.89 5.59-4.48 7.64-6.13 1.51-1.23.91-2.47-1.27-1.13a138.4 138.4 0 00-8.79 4.86c-2.76 1.64-4 2.36-4.35 2-.44-.71.92-2.25 2.29-3.55 1.39-1.58 1.72-3.18 1-4a36.63 36.63 0 01-4.38 3.73z" transform="translate(-13.26 -2.03)" id="path1113"/><path d="M197.74 137.83c-1.19 1-3.21.4-4.08-.92a6.79 6.79 0 01-.68-4.58 1.85 1.85 0 01.23-.8" transform="translate(-13.26 -2.03)" id="path1115" style="mix-blend-mode:multiply" fill="#facfc4"/><path class="cls-12" d="M51.38 121.25c-.34-.16-.59.35-.56.72a2.73 2.73 0 005.22.84" transform="translate(-13.26 -2.03)" id="path1117"/><path class="cls-12" d="M107.48 122a2.79 2.79 0 005.2-1.23" transform="translate(-13.26 -2.03)" id="path1119"/><path class="cls-12" id="polygon1121" d="M54.68 40.39v48.45l24.08 2.29-.43-48.73z"/><path d="M71.3 51.92c.55.18.18 15.41 20.44 17.44l-.15-22.07z" transform="translate(-13.26 -2.03)" id="path1123" fill="#bc968f"/><path class="cls-12" d="M93.5 30.9C95.22 44.53 90.74 58 81 59.18c-9.74 1.18-16.76-11.13-18.48-24.76-1.72-13.63 3.08-23.75 12.81-25S91.78 17.27 93.5 30.9z" transform="translate(-13.26 -2.03)" id="path1125"/><path class="cls-12" d="M64 34.34s-2.59-1.83-3.26 0c-.18.47.4 2.26 1.24 4.69.56 1.6 1.74 2.58 2.73 1.45.03-.07-.71-6.14-.71-6.14z" transform="translate(-13.26 -2.03)" id="path1127"/><path class="cls-12" d="M91.93 30.05s1.75-2.55 3-1.22c.34.35.44 2.13.53 4.56.06 1.6-.68 2.89-2 2.26-.03-.02-1.53-5.6-1.53-5.6z" transform="translate(-13.26 -2.03)" id="path1129"/><path class="cls-28" d="M82.57 35c1.27 8.13-4.6 4.27-4.6 4.27l2.16-1.5c-.09-.27-1.54-10.91-1.56-10.83-.02.08 3.12 2.41 4 8.06z" transform="translate(-13.26 -2.03)" id="path1131"/><path class="cls-2" d="M59.93 18.86l1.93 14.82A7.13 7.13 0 0064 34c2.62-1.75 1-10.71 0-9.63z" transform="translate(-13.26 -2.03)" id="path1133"/><path class="cls-2" d="M88.87 20.56l1.58 8.8s3.26 0 3.2-.49c-.06-.49-2.52-9.08-2.52-9.08z" transform="translate(-13.26 -2.03)" id="path1135"/><path class="cls-28" d="M63.58 36.15c-.18-.34-.75-.27-1 0a1.44 1.44 0 00-.14 1.12 2.61 2.61 0 00.44 1.15A1.24 1.24 0 0064 39" transform="translate(-13.26 -2.03)" id="path1137"/><path class="cls-28" d="M93.84 31.11a.59.59 0 01.74.07 1.25 1.25 0 01.34.7A1.71 1.71 0 0194.8 33a1 1 0 01-1 .57" transform="translate(-13.26 -2.03)" id="path1139"/><path class="cls-2" d="M68.87 46.87c.42.21 2.61 3.49 6.51 3.09 3.13-.32 4.27-5.17 4.27-5.17l2.77-.25s.64 4.05 4.62 3.76c4.63-.35 6.19-5.82 6.22-12.09 0-.52.84-.41.84-.41S96.74 47 92.55 57c-2.66 6.33-14 8.75-19.54 3.18-6.63-6.69-8.1-15.31-9.33-19-.11-.35.63-.73.63-.73z" transform="translate(-13.26 -2.03)" id="path1141"/><path class="cls-2" d="M65.62 25.23l25.51-5.44S90 8.41 79.45 6c-9-2.08-18.74 5.52-19.52 12.9-.15 1.38 5.69 6.33 5.69 6.33z" transform="translate(-13.26 -2.03)" id="path1143"/><path class="cls-28" d="M66.58 29.33c.33-2.42 6.17-3.89 7.94-2.06" transform="translate(-13.26 -2.03)" id="path1145"/><path class="cls-28" d="M79.79 25c1.83-2.42 7.48-3 8.89-1.3" transform="translate(-13.26 -2.03)" id="path1147"/><g class="cls-29" id="g1151"><circle class="cls-2" cx="58.28" cy="29.96" r="1.39" id="circle1149"/></g><g class="cls-29" id="g1155"><circle class="cls-2" cx="71.35" cy="27.16" r="1.39" id="circle1153"/></g><path class="cls-11" d="M75 43.1l9.29-1.42s.63 5-3.29 5.7c-3.92.7-6-4.28-6-4.28z" transform="translate(-13.26 -2.03)" id="path1157"/><path d="M146.6 117.49s2.25-19.16-9.81-25.55c-12.06-6.39-36-14.18-36-14.18s-4.42 12.77-20.03 13.47c-15.61.7-20.56-13.47-20.56-13.47a136.7 136.7 0 00-27.66 9.93c-15 7.21-18.44 19.86-18.44 19.86l.28 14.9L40.66 137l.34 21.11v23.19l.5 12.7s1.5 10 41.77 10 38.23-10 38.23-10l1.11-12.7.89-21.12-1.3-23.18 24.46-10.88z" transform="translate(-13.26 -2.03)" id="path1159" fill="url(#Drop_3)"/><path d="M105.12 105.45s-13.8.09-16.66-.13c-2.86-.22-3-2.24-3-2.24a7.06 7.06 0 00.09-4.88c-1-2.37-3.82-2.59-3.34-1.41s-.09 4.88-.09 4.88C80.58 107.88 76 113.35 72 117.1a41.82 41.82 0 01-4.52 3.62c-12.14 9.4-40.38 29.73-52.79 52 0 0-2.8 4.51 2.09 10.07 7.88 9 15.14 3.74 15.14 3.74s19.62-16.1 42.91-50.18l.05.08 9.66-13.63s2.86.22 8.31-3.38c5.45-3.6 1.71-11.08 1.71-11.08s6.9 0 8.92-.18c2.02-.18 3.8-.85 4.16-1.69.36-.84-2.52-1.02-2.52-1.02z" transform="translate(-13.26 -2.03)" id="path1161" opacity=".3" fill="#bc968f"/><path class="cls-12" d="M31.29 185.44s-7.29 5.23-15.14-3.74c-4.89-5.56-2.09-10.07-2.09-10.07 12.41-22.32 40.65-42.64 52.8-52a40.32 40.32 0 004.51-3.63l9.5 9.17c-26.08 41-49.58 60.27-49.58 60.27z" transform="translate(-13.26 -2.03)" id="path1163"/><path class="cls-12" d="M65.06 121.15s13.56-9 16.46-20.6c0 0 .57-3.69.08-4.88-.49-1.19 2.38-1 3.34 1.41a7.05 7.05 0 01-.08 4.87s.13 2 3 2.25 16.65.12 16.65.12 2.86.22 2.51 1.06c-.35.84-2.13 1.56-4.15 1.69-2.02.13-8.93.18-8.93.18s3.74 7.47-1.71 11.07c-5.45 3.6-8.3 3.39-8.3 3.39l-9.67 13.63z" transform="translate(-13.26 -2.03)" id="path1165"/></g></g></svg>